<svg xmlns="http://www.w3.org/2000/svg" viewBox="0 0 512 512">
  <defs>
    <linearGradient id="g1" x1="0%" y1="0%" x2="100%" y2="100%">
      <stop offset="0%" stop-color="#0f6a78"/>
      <stop offset="100%" stop-color="#1aa6b7"/>
    </linearGradient>
  </defs>
  <rect x="0" y="0" width="512" height="512" rx="88" fill="url(#g1)"/>
  <path d="M112 304c0-53 43-96 96-96h96c53 0 96 43 96 96v24c0 18-14 32-32 32H144c-18 0-32-14-32-32v-24zm80-112c0-35 29-64 64-64s64 29 64 64v24H192v-24z" fill="#f6f7f2"/>
  <circle cx="188" cy="340" r="26" fill="#0f6a78"/>
  <circle cx="324" cy="340" r="26" fill="#0f6a78"/>
</svg>
